<?xml version="1.0" encoding="utf-8"?>
<!-- Generator: Adobe Illustrator 16.0.0, SVG Export Plug-In . SVG Version: 6.00 Build 0)  -->
<!DOCTYPE svg PUBLIC "-//W3C//DTD SVG 1.1//EN" "http://www.w3.org/Graphics/SVG/1.1/DTD/svg11.dtd">
<svg version="1.1" id="Layer_1" xmlns="http://www.w3.org/2000/svg" xmlns:xlink="http://www.w3.org/1999/xlink" x="0px" y="0px"
	 width="40px" height="50px" viewBox="0 0 40 50" enable-background="new 0 0 40 50" xml:space="preserve">
<path fill="#8CC63F" stroke="#8CC63F" stroke-width="2" stroke-miterlimit="10" d="M8.927,19.29c0-8.604,3.947-14.356,10.408-14.356
	c6.46,0,10.41,5.752,10.41,14.356c0,9.556-10.41,25.246-10.41,25.246S8.927,28.846,8.927,19.29z"/>
<path fill="none" d="M19.335,42.771c0,0-12.639-18.99-12.639-30.196c0-10.092,5.064-16.831,12.639-16.831s12.64,6.739,12.64,16.831
	C31.975,23.781,19.335,42.771,19.335,42.771z"/>
<path fill="#111111" stroke="#111111" stroke-miterlimit="10" d="M19.335,1.223c-7.574,0-12.639,6.739-12.639,16.831
	c0,11.205,12.639,30.196,12.639,30.196s12.64-18.991,12.64-30.196C31.975,7.961,26.91,1.223,19.335,1.223z M8.927,18.548
	c0-8.604,3.947-14.356,10.408-14.356c6.459,0,10.409,5.751,10.409,14.356c0,9.554-10.409,25.247-10.409,25.247
	S8.927,28.104,8.927,18.548z"/>
<path fill="#111111" stroke="#111111" stroke-miterlimit="10" d="M19.65,13.777c2.523,0,4.568,2.008,4.568,4.482
	c0,2.475-2.046,4.482-4.568,4.482c-2.525,0-4.57-2.007-4.57-4.482C15.081,15.785,17.125,13.777,19.65,13.777z"/>
<g>
	<g>
		<path fill="none" stroke="#212121" stroke-linecap="round" stroke-miterlimit="10" d="M15.333,28.1"/>
	</g>
</g>
</svg>
